<?xml version="1.0" encoding="utf-8" standalone="no"?>
<!DOCTYPE svg PUBLIC "-//W3C//DTD SVG 1.1//EN"
  "http://www.w3.org/Graphics/SVG/1.1/DTD/svg11.dtd">
<svg xmlns:xlink="http://www.w3.org/1999/xlink" width="706.439648pt" height="279.05775pt" viewBox="0 0 706.439648 279.05775" xmlns="http://www.w3.org/2000/svg" version="1.1">
 <metadata>
  <rdf:RDF xmlns:dc="http://purl.org/dc/elements/1.1/" xmlns:cc="http://creativecommons.org/ns#" xmlns:rdf="http://www.w3.org/1999/02/22-rdf-syntax-ns#">
   <cc:Work>
    <dc:type rdf:resource="http://purl.org/dc/dcmitype/StillImage"/>
    <dc:date>2025-04-15T11:04:34.637820</dc:date>
    <dc:format>image/svg+xml</dc:format>
    <dc:creator>
     <cc:Agent>
      <dc:title>Matplotlib v3.10.1, https://matplotlib.org/</dc:title>
     </cc:Agent>
    </dc:creator>
   </cc:Work>
  </rdf:RDF>
 </metadata>
 <defs>
  <style type="text/css">*{stroke-linejoin: round; stroke-linecap: butt}</style>
 </defs>
 <g id="figure_1">
  <g id="patch_1">
   <path d="M 0 279.05775 
L 706.439648 279.05775 
L 706.439648 0 
L 0 0 
z
" style="fill: #ffffff"/>
  </g>
  <g id="axes_1">
   <g id="patch_2">
    <path d="M 153.83125 271.85775 
L 649.934491 271.85775 
L 649.934491 85.18575 
L 153.83125 85.18575 
z
" style="fill: #ffffff"/>
   </g>
   <g id="patch_3">
    <path d="M 171.849033 263.372659 
L 627.168517 263.372659 
L 627.168517 227.645961 
L 171.849033 227.645961 
z
" clip-path="url(#pc567a4dbf4)" style="fill: #1eff8c"/>
   </g>
   <g id="patch_4">
    <path d="M 171.849033 218.714286 
L 627.168517 218.714286 
L 627.168517 182.987587 
L 171.849033 182.987587 
z
" clip-path="url(#pc567a4dbf4)" style="fill: #ffcb2a"/>
   </g>
   <g id="patch_5">
    <path d="M 171.849033 174.055913 
L 627.168517 174.055913 
L 627.168517 138.329214 
L 171.849033 138.329214 
z
" clip-path="url(#pc567a4dbf4)" style="fill: #ec3137"/>
   </g>
   <g id="patch_6">
    <path d="M 171.849033 129.397539 
L 627.168517 129.397539 
L 627.168517 93.670841 
L 171.849033 93.670841 
z
" clip-path="url(#pc567a4dbf4)" style="fill: #ae3333"/>
   </g>
   <g id="matplotlib.axis_1">
    <g id="ytick_1">
     <g id="text_1">
      <!-- VERMELHA II -->
      <g style="fill: #0f7661" transform="translate(7.2 253.107747) scale(0.2 -0.2)">
       <defs>
        <path id="DejaVuSans-56" d="M 1831 0 
L 50 4666 
L 709 4666 
L 2188 738 
L 3669 4666 
L 4325 4666 
L 2547 0 
L 1831 0 
z
" transform="scale(0.015625)"/>
        <path id="DejaVuSans-45" d="M 628 4666 
L 3578 4666 
L 3578 4134 
L 1259 4134 
L 1259 2753 
L 3481 2753 
L 3481 2222 
L 1259 2222 
L 1259 531 
L 3634 531 
L 3634 0 
L 628 0 
L 628 4666 
z
" transform="scale(0.015625)"/>
        <path id="DejaVuSans-52" d="M 2841 2188 
Q 3044 2119 3236 1894 
Q 3428 1669 3622 1275 
L 4263 0 
L 3584 0 
L 2988 1197 
Q 2756 1666 2539 1819 
Q 2322 1972 1947 1972 
L 1259 1972 
L 1259 0 
L 628 0 
L 628 4666 
L 2053 4666 
Q 2853 4666 3247 4331 
Q 3641 3997 3641 3322 
Q 3641 2881 3436 2590 
Q 3231 2300 2841 2188 
z
M 1259 4147 
L 1259 2491 
L 2053 2491 
Q 2509 2491 2742 2702 
Q 2975 2913 2975 3322 
Q 2975 3731 2742 3939 
Q 2509 4147 2053 4147 
L 1259 4147 
z
" transform="scale(0.015625)"/>
        <path id="DejaVuSans-4d" d="M 628 4666 
L 1569 4666 
L 2759 1491 
L 3956 4666 
L 4897 4666 
L 4897 0 
L 4281 0 
L 4281 4097 
L 3078 897 
L 2444 897 
L 1241 4097 
L 1241 0 
L 628 0 
L 628 4666 
z
" transform="scale(0.015625)"/>
        <path id="DejaVuSans-4c" d="M 628 4666 
L 1259 4666 
L 1259 531 
L 3531 531 
L 3531 0 
L 628 0 
L 628 4666 
z
" transform="scale(0.015625)"/>
        <path id="DejaVuSans-48" d="M 628 4666 
L 1259 4666 
L 1259 2753 
L 3553 2753 
L 3553 4666 
L 4184 4666 
L 4184 0 
L 3553 0 
L 3553 2222 
L 1259 2222 
L 1259 0 
L 628 0 
L 628 4666 
z
" transform="scale(0.015625)"/>
        <path id="DejaVuSans-41" d="M 2188 4044 
L 1331 1722 
L 3047 1722 
L 2188 4044 
z
M 1831 4666 
L 2547 4666 
L 4325 0 
L 3669 0 
L 3244 1197 
L 1141 1197 
L 716 0 
L 50 0 
L 1831 4666 
z
" transform="scale(0.015625)"/>
        <path id="DejaVuSans-20" transform="scale(0.015625)"/>
        <path id="DejaVuSans-49" d="M 628 4666 
L 1259 4666 
L 1259 0 
L 628 0 
L 628 4666 
z
" transform="scale(0.015625)"/>
       </defs>
       <use xlink:href="#DejaVuSans-56"/>
       <use xlink:href="#DejaVuSans-45" transform="translate(68.408203 0)"/>
       <use xlink:href="#DejaVuSans-52" transform="translate(131.591797 0)"/>
       <use xlink:href="#DejaVuSans-4d" transform="translate(201.074219 0)"/>
       <use xlink:href="#DejaVuSans-45" transform="translate(287.353516 0)"/>
       <use xlink:href="#DejaVuSans-4c" transform="translate(350.537109 0)"/>
       <use xlink:href="#DejaVuSans-48" transform="translate(406.25 0)"/>
       <use xlink:href="#DejaVuSans-41" transform="translate(481.445312 0)"/>
       <use xlink:href="#DejaVuSans-20" transform="translate(549.853516 0)"/>
       <use xlink:href="#DejaVuSans-49" transform="translate(581.640625 0)"/>
       <use xlink:href="#DejaVuSans-49" transform="translate(611.132812 0)"/>
      </g>
     </g>
    </g>
    <g id="ytick_2">
     <g id="text_2">
      <!-- VERMELHA I -->
      <g style="fill: #0f7661" transform="translate(13.1 208.449374) scale(0.2 -0.2)">
       <use xlink:href="#DejaVuSans-56"/>
       <use xlink:href="#DejaVuSans-45" transform="translate(68.408203 0)"/>
       <use xlink:href="#DejaVuSans-52" transform="translate(131.591797 0)"/>
       <use xlink:href="#DejaVuSans-4d" transform="translate(201.074219 0)"/>
       <use xlink:href="#DejaVuSans-45" transform="translate(287.353516 0)"/>
       <use xlink:href="#DejaVuSans-4c" transform="translate(350.537109 0)"/>
       <use xlink:href="#DejaVuSans-48" transform="translate(406.25 0)"/>
       <use xlink:href="#DejaVuSans-41" transform="translate(481.445312 0)"/>
       <use xlink:href="#DejaVuSans-20" transform="translate(549.853516 0)"/>
       <use xlink:href="#DejaVuSans-49" transform="translate(581.640625 0)"/>
      </g>
     </g>
    </g>
    <g id="ytick_3">
     <g id="text_3">
      <!-- AMARELA -->
      <g style="fill: #0f7661" transform="translate(38.903125 163.791001) scale(0.2 -0.2)">
       <use xlink:href="#DejaVuSans-41"/>
       <use xlink:href="#DejaVuSans-4d" transform="translate(68.408203 0)"/>
       <use xlink:href="#DejaVuSans-41" transform="translate(154.6875 0)"/>
       <use xlink:href="#DejaVuSans-52" transform="translate(223.095703 0)"/>
       <use xlink:href="#DejaVuSans-45" transform="translate(292.578125 0)"/>
       <use xlink:href="#DejaVuSans-4c" transform="translate(355.761719 0)"/>
       <use xlink:href="#DejaVuSans-41" transform="translate(413.724609 0)"/>
      </g>
     </g>
    </g>
    <g id="ytick_4">
     <g id="text_4">
      <!-- VERDE -->
      <g style="fill: #0f7661" transform="translate(67.078125 119.132628) scale(0.2 -0.2)">
       <defs>
        <path id="DejaVuSans-44" d="M 1259 4147 
L 1259 519 
L 2022 519 
Q 2988 519 3436 956 
Q 3884 1394 3884 2338 
Q 3884 3275 3436 3711 
Q 2988 4147 2022 4147 
L 1259 4147 
z
M 628 4666 
L 1925 4666 
Q 3281 4666 3915 4102 
Q 4550 3538 4550 2338 
Q 4550 1131 3912 565 
Q 3275 0 1925 0 
L 628 0 
L 628 4666 
z
" transform="scale(0.015625)"/>
       </defs>
       <use xlink:href="#DejaVuSans-56"/>
       <use xlink:href="#DejaVuSans-45" transform="translate(68.408203 0)"/>
       <use xlink:href="#DejaVuSans-52" transform="translate(131.591797 0)"/>
       <use xlink:href="#DejaVuSans-44" transform="translate(201.074219 0)"/>
       <use xlink:href="#DejaVuSans-45" transform="translate(278.076172 0)"/>
      </g>
     </g>
    </g>
   </g>
   <g id="patch_7">
    <path d="M 153.83125 271.85775 
L 153.83125 85.18575 
" style="fill: none; stroke: #0f7661; stroke-width: 2; stroke-linejoin: miter; stroke-linecap: square"/>
   </g>
   <g id="text_5">
    <!-- 25.27% -->
    <g style="fill: #0f7661" transform="translate(615.939648 251.02806) scale(0.2 -0.2)">
     <defs>
      <path id="DejaVuSans-Bold-32" d="M 1844 884 
L 3897 884 
L 3897 0 
L 506 0 
L 506 884 
L 2209 2388 
Q 2438 2594 2547 2791 
Q 2656 2988 2656 3200 
Q 2656 3528 2436 3728 
Q 2216 3928 1850 3928 
Q 1569 3928 1234 3808 
Q 900 3688 519 3450 
L 519 4475 
Q 925 4609 1322 4679 
Q 1719 4750 2100 4750 
Q 2938 4750 3402 4381 
Q 3866 4013 3866 3353 
Q 3866 2972 3669 2642 
Q 3472 2313 2841 1759 
L 1844 884 
z
" transform="scale(0.015625)"/>
      <path id="DejaVuSans-Bold-35" d="M 678 4666 
L 3669 4666 
L 3669 3781 
L 1638 3781 
L 1638 3059 
Q 1775 3097 1914 3117 
Q 2053 3138 2203 3138 
Q 3056 3138 3531 2711 
Q 4006 2284 4006 1522 
Q 4006 766 3489 337 
Q 2972 -91 2053 -91 
Q 1656 -91 1267 -14 
Q 878 63 494 219 
L 494 1166 
Q 875 947 1217 837 
Q 1559 728 1863 728 
Q 2300 728 2551 942 
Q 2803 1156 2803 1522 
Q 2803 1891 2551 2103 
Q 2300 2316 1863 2316 
Q 1603 2316 1309 2248 
Q 1016 2181 678 2041 
L 678 4666 
z
" transform="scale(0.015625)"/>
      <path id="DejaVuSans-Bold-2e" d="M 653 1209 
L 1778 1209 
L 1778 0 
L 653 0 
L 653 1209 
z
" transform="scale(0.015625)"/>
      <path id="DejaVuSans-Bold-37" d="M 428 4666 
L 3944 4666 
L 3944 3988 
L 2125 0 
L 953 0 
L 2675 3781 
L 428 3781 
L 428 4666 
z
" transform="scale(0.015625)"/>
      <path id="DejaVuSans-Bold-25" d="M 4959 1925 
Q 4738 1925 4616 1733 
Q 4494 1541 4494 1184 
Q 4494 825 4614 633 
Q 4734 441 4959 441 
Q 5184 441 5303 633 
Q 5422 825 5422 1184 
Q 5422 1541 5301 1733 
Q 5181 1925 4959 1925 
z
M 4959 2450 
Q 5541 2450 5875 2112 
Q 6209 1775 6209 1184 
Q 6209 594 5875 251 
Q 5541 -91 4959 -91 
Q 4378 -91 4042 251 
Q 3706 594 3706 1184 
Q 3706 1772 4042 2111 
Q 4378 2450 4959 2450 
z
M 2094 -91 
L 1403 -91 
L 4319 4750 
L 5013 4750 
L 2094 -91 
z
M 1453 4750 
Q 2034 4750 2367 4411 
Q 2700 4072 2700 3481 
Q 2700 2891 2367 2550 
Q 2034 2209 1453 2209 
Q 872 2209 539 2550 
Q 206 2891 206 3481 
Q 206 4072 539 4411 
Q 872 4750 1453 4750 
z
M 1453 4225 
Q 1228 4225 1106 4031 
Q 984 3838 984 3481 
Q 984 3122 1106 2926 
Q 1228 2731 1453 2731 
Q 1678 2731 1798 2926 
Q 1919 3122 1919 3481 
Q 1919 3838 1797 4031 
Q 1675 4225 1453 4225 
z
" transform="scale(0.015625)"/>
     </defs>
     <use xlink:href="#DejaVuSans-Bold-32"/>
     <use xlink:href="#DejaVuSans-Bold-35" transform="translate(69.580078 0)"/>
     <use xlink:href="#DejaVuSans-Bold-2e" transform="translate(139.160156 0)"/>
     <use xlink:href="#DejaVuSans-Bold-32" transform="translate(177.148438 0)"/>
     <use xlink:href="#DejaVuSans-Bold-37" transform="translate(246.728516 0)"/>
     <use xlink:href="#DejaVuSans-Bold-25" transform="translate(316.308594 0)"/>
    </g>
   </g>
   <g id="text_6">
    <!-- 25.27% -->
    <g style="fill: #0f7661" transform="translate(615.939648 206.369687) scale(0.2 -0.2)">
     <use xlink:href="#DejaVuSans-Bold-32"/>
     <use xlink:href="#DejaVuSans-Bold-35" transform="translate(69.580078 0)"/>
     <use xlink:href="#DejaVuSans-Bold-2e" transform="translate(139.160156 0)"/>
     <use xlink:href="#DejaVuSans-Bold-32" transform="translate(177.148438 0)"/>
     <use xlink:href="#DejaVuSans-Bold-37" transform="translate(246.728516 0)"/>
     <use xlink:href="#DejaVuSans-Bold-25" transform="translate(316.308594 0)"/>
    </g>
   </g>
   <g id="text_7">
    <!-- 25.27% -->
    <g style="fill: #0f7661" transform="translate(615.939648 161.711313) scale(0.2 -0.2)">
     <use xlink:href="#DejaVuSans-Bold-32"/>
     <use xlink:href="#DejaVuSans-Bold-35" transform="translate(69.580078 0)"/>
     <use xlink:href="#DejaVuSans-Bold-2e" transform="translate(139.160156 0)"/>
     <use xlink:href="#DejaVuSans-Bold-32" transform="translate(177.148438 0)"/>
     <use xlink:href="#DejaVuSans-Bold-37" transform="translate(246.728516 0)"/>
     <use xlink:href="#DejaVuSans-Bold-25" transform="translate(316.308594 0)"/>
    </g>
   </g>
   <g id="text_8">
    <!-- 25.27% -->
    <g style="fill: #0f7661" transform="translate(615.939648 117.05294) scale(0.2 -0.2)">
     <use xlink:href="#DejaVuSans-Bold-32"/>
     <use xlink:href="#DejaVuSans-Bold-35" transform="translate(69.580078 0)"/>
     <use xlink:href="#DejaVuSans-Bold-2e" transform="translate(139.160156 0)"/>
     <use xlink:href="#DejaVuSans-Bold-32" transform="translate(177.148438 0)"/>
     <use xlink:href="#DejaVuSans-Bold-37" transform="translate(246.728516 0)"/>
     <use xlink:href="#DejaVuSans-Bold-25" transform="translate(316.308594 0)"/>
    </g>
   </g>
   <g id="text_9">
    <!-- DESCONTO MÉDIO EM CADA  -->
    <g style="fill: #0f7661" transform="translate(153.83125 25.43625) scale(0.24 -0.24)">
     <defs>
      <path id="DejaVuSans-53" d="M 3425 4513 
L 3425 3897 
Q 3066 4069 2747 4153 
Q 2428 4238 2131 4238 
Q 1616 4238 1336 4038 
Q 1056 3838 1056 3469 
Q 1056 3159 1242 3001 
Q 1428 2844 1947 2747 
L 2328 2669 
Q 3034 2534 3370 2195 
Q 3706 1856 3706 1288 
Q 3706 609 3251 259 
Q 2797 -91 1919 -91 
Q 1588 -91 1214 -16 
Q 841 59 441 206 
L 441 856 
Q 825 641 1194 531 
Q 1563 422 1919 422 
Q 2459 422 2753 634 
Q 3047 847 3047 1241 
Q 3047 1584 2836 1778 
Q 2625 1972 2144 2069 
L 1759 2144 
Q 1053 2284 737 2584 
Q 422 2884 422 3419 
Q 422 4038 858 4394 
Q 1294 4750 2059 4750 
Q 2388 4750 2728 4690 
Q 3069 4631 3425 4513 
z
" transform="scale(0.015625)"/>
      <path id="DejaVuSans-43" d="M 4122 4306 
L 4122 3641 
Q 3803 3938 3442 4084 
Q 3081 4231 2675 4231 
Q 1875 4231 1450 3742 
Q 1025 3253 1025 2328 
Q 1025 1406 1450 917 
Q 1875 428 2675 428 
Q 3081 428 3442 575 
Q 3803 722 4122 1019 
L 4122 359 
Q 3791 134 3420 21 
Q 3050 -91 2638 -91 
Q 1578 -91 968 557 
Q 359 1206 359 2328 
Q 359 3453 968 4101 
Q 1578 4750 2638 4750 
Q 3056 4750 3426 4639 
Q 3797 4528 4122 4306 
z
" transform="scale(0.015625)"/>
      <path id="DejaVuSans-4f" d="M 2522 4238 
Q 1834 4238 1429 3725 
Q 1025 3213 1025 2328 
Q 1025 1447 1429 934 
Q 1834 422 2522 422 
Q 3209 422 3611 934 
Q 4013 1447 4013 2328 
Q 4013 3213 3611 3725 
Q 3209 4238 2522 4238 
z
M 2522 4750 
Q 3503 4750 4090 4092 
Q 4678 3434 4678 2328 
Q 4678 1225 4090 567 
Q 3503 -91 2522 -91 
Q 1538 -91 948 565 
Q 359 1222 359 2328 
Q 359 3434 948 4092 
Q 1538 4750 2522 4750 
z
" transform="scale(0.015625)"/>
      <path id="DejaVuSans-4e" d="M 628 4666 
L 1478 4666 
L 3547 763 
L 3547 4666 
L 4159 4666 
L 4159 0 
L 3309 0 
L 1241 3903 
L 1241 0 
L 628 0 
L 628 4666 
z
" transform="scale(0.015625)"/>
      <path id="DejaVuSans-54" d="M -19 4666 
L 3928 4666 
L 3928 4134 
L 2272 4134 
L 2272 0 
L 1638 0 
L 1638 4134 
L -19 4134 
L -19 4666 
z
" transform="scale(0.015625)"/>
      <path id="DejaVuSans-c9" d="M 628 4666 
L 3578 4666 
L 3578 4134 
L 1259 4134 
L 1259 2753 
L 3481 2753 
L 3481 2222 
L 1259 2222 
L 1259 531 
L 3634 531 
L 3634 0 
L 628 0 
L 628 4666 
z
M 2268 5921 
L 2846 5921 
L 2134 5096 
L 1655 5096 
L 2268 5921 
z
" transform="scale(0.015625)"/>
     </defs>
     <use xlink:href="#DejaVuSans-44"/>
     <use xlink:href="#DejaVuSans-45" transform="translate(77.001953 0)"/>
     <use xlink:href="#DejaVuSans-53" transform="translate(140.185547 0)"/>
     <use xlink:href="#DejaVuSans-43" transform="translate(203.662109 0)"/>
     <use xlink:href="#DejaVuSans-4f" transform="translate(273.486328 0)"/>
     <use xlink:href="#DejaVuSans-4e" transform="translate(352.197266 0)"/>
     <use xlink:href="#DejaVuSans-54" transform="translate(427.001953 0)"/>
     <use xlink:href="#DejaVuSans-4f" transform="translate(488.085938 0)"/>
     <use xlink:href="#DejaVuSans-20" transform="translate(566.796875 0)"/>
     <use xlink:href="#DejaVuSans-4d" transform="translate(598.583984 0)"/>
     <use xlink:href="#DejaVuSans-c9" transform="translate(684.863281 0)"/>
     <use xlink:href="#DejaVuSans-44" transform="translate(748.046875 0)"/>
     <use xlink:href="#DejaVuSans-49" transform="translate(825.048828 0)"/>
     <use xlink:href="#DejaVuSans-4f" transform="translate(854.541016 0)"/>
     <use xlink:href="#DejaVuSans-20" transform="translate(933.251953 0)"/>
     <use xlink:href="#DejaVuSans-45" transform="translate(965.039062 0)"/>
     <use xlink:href="#DejaVuSans-4d" transform="translate(1028.222656 0)"/>
     <use xlink:href="#DejaVuSans-20" transform="translate(1114.501953 0)"/>
     <use xlink:href="#DejaVuSans-43" transform="translate(1146.289062 0)"/>
     <use xlink:href="#DejaVuSans-41" transform="translate(1216.113281 0)"/>
     <use xlink:href="#DejaVuSans-44" transform="translate(1284.521484 0)"/>
     <use xlink:href="#DejaVuSans-41" transform="translate(1359.773438 0)"/>
     <use xlink:href="#DejaVuSans-20" transform="translate(1428.181641 0)"/>
    </g>
    <!-- BANDEIRA TARIFÁRIA -->
    <g style="fill: #0f7661" transform="translate(153.83125 52.311) scale(0.24 -0.24)">
     <defs>
      <path id="DejaVuSans-42" d="M 1259 2228 
L 1259 519 
L 2272 519 
Q 2781 519 3026 730 
Q 3272 941 3272 1375 
Q 3272 1813 3026 2020 
Q 2781 2228 2272 2228 
L 1259 2228 
z
M 1259 4147 
L 1259 2741 
L 2194 2741 
Q 2656 2741 2882 2914 
Q 3109 3088 3109 3444 
Q 3109 3797 2882 3972 
Q 2656 4147 2194 4147 
L 1259 4147 
z
M 628 4666 
L 2241 4666 
Q 2963 4666 3353 4366 
Q 3744 4066 3744 3513 
Q 3744 3084 3544 2831 
Q 3344 2578 2956 2516 
Q 3422 2416 3680 2098 
Q 3938 1781 3938 1306 
Q 3938 681 3513 340 
Q 3088 0 2303 0 
L 628 0 
L 628 4666 
z
" transform="scale(0.015625)"/>
      <path id="DejaVuSans-46" d="M 628 4666 
L 3309 4666 
L 3309 4134 
L 1259 4134 
L 1259 2759 
L 3109 2759 
L 3109 2228 
L 1259 2228 
L 1259 0 
L 628 0 
L 628 4666 
z
" transform="scale(0.015625)"/>
      <path id="DejaVuSans-c1" d="M 2188 4044 
L 1331 1722 
L 3047 1722 
L 2188 4044 
z
M 1831 4666 
L 2547 4666 
L 4325 0 
L 3669 0 
L 3244 1197 
L 1141 1197 
L 716 0 
L 50 0 
L 1831 4666 
z
M 2356 5921 
L 2934 5921 
L 2222 5096 
L 1743 5096 
L 2356 5921 
z
" transform="scale(0.015625)"/>
     </defs>
     <use xlink:href="#DejaVuSans-42"/>
     <use xlink:href="#DejaVuSans-41" transform="translate(68.603516 0)"/>
     <use xlink:href="#DejaVuSans-4e" transform="translate(137.011719 0)"/>
     <use xlink:href="#DejaVuSans-44" transform="translate(211.816406 0)"/>
     <use xlink:href="#DejaVuSans-45" transform="translate(288.818359 0)"/>
     <use xlink:href="#DejaVuSans-49" transform="translate(352.001953 0)"/>
     <use xlink:href="#DejaVuSans-52" transform="translate(381.494141 0)"/>
     <use xlink:href="#DejaVuSans-41" transform="translate(446.976562 0)"/>
     <use xlink:href="#DejaVuSans-20" transform="translate(515.384766 0)"/>
     <use xlink:href="#DejaVuSans-54" transform="translate(547.171875 0)"/>
     <use xlink:href="#DejaVuSans-41" transform="translate(600.505859 0)"/>
     <use xlink:href="#DejaVuSans-52" transform="translate(668.914062 0)"/>
     <use xlink:href="#DejaVuSans-49" transform="translate(738.396484 0)"/>
     <use xlink:href="#DejaVuSans-46" transform="translate(767.888672 0)"/>
     <use xlink:href="#DejaVuSans-c1" transform="translate(816.283203 0)"/>
     <use xlink:href="#DejaVuSans-52" transform="translate(884.691406 0)"/>
     <use xlink:href="#DejaVuSans-49" transform="translate(954.173828 0)"/>
     <use xlink:href="#DejaVuSans-41" transform="translate(983.666016 0)"/>
    </g>
    <!--  -->
    <g style="fill: #0f7661" transform="translate(153.83125 79.18575) scale(0.24 -0.24)"/>
   </g>
  </g>
 </g>
 <defs>
  <clipPath id="pc567a4dbf4">
   <rect x="153.83125" y="85.18575" width="496.103241" height="186.672"/>
  </clipPath>
 </defs>
</svg>
