<svg width="96" height="96" xmlns="http://www.w3.org/2000/svg" xmlns:xlink="http://www.w3.org/1999/xlink" xml:space="preserve" overflow="hidden"><g transform="translate(-833 -10038)"><path d="M919 10109 916 10112 847 10112 843 10108 843 10088 847 10084 916 10084 919 10087 919 10109ZM837 10078 837 10118 925 10118 925 10078 837 10078Z" fill="#FFFFFF"/><path d="M889 10098C889 10103.5 885.418 10108 881 10108 876.582 10108 873 10103.5 873 10098 873 10092.5 876.582 10088 881 10088 885.418 10088 889 10092.5 889 10098Z" fill="#FFFFFF"/><path d="M859 10098C859 10099.7 857.657 10101 856 10101 854.343 10101 853 10099.7 853 10098 853 10096.3 854.343 10095 856 10095 857.657 10095 859 10096.3 859 10098Z" fill="#FFFFFF"/><path d="M909 10098C909 10099.7 907.657 10101 906 10101 904.343 10101 903 10099.7 903 10098 903 10096.3 904.343 10095 906 10095 907.657 10095 909 10096.3 909 10098Z" fill="#FFFFFF"/><path d="M898.9 10058.7 900.4 10062.5 906.4 10061.3 902.2 10050.8 848.4 10072.8 879.2 10066.7Z" fill="#FFFFFF"/><path d="M893.7 10074 909.5 10070.9 910.2 10074 916.3 10074 914.3 10063.8 863 10074Z" fill="#FFFFFF"/></g></svg>