<?xml version="1.0" encoding="utf-8" standalone="no"?>
<!DOCTYPE svg PUBLIC "-//W3C//DTD SVG 1.1//EN"
  "http://www.w3.org/Graphics/SVG/1.1/DTD/svg11.dtd">
<svg xmlns:xlink="http://www.w3.org/1999/xlink" width="1018.8pt" height="347.155125pt" viewBox="0 0 1018.8 347.155125" xmlns="http://www.w3.org/2000/svg" version="1.1">
 <metadata>
  <rdf:RDF xmlns:dc="http://purl.org/dc/elements/1.1/" xmlns:cc="http://creativecommons.org/ns#" xmlns:rdf="http://www.w3.org/1999/02/22-rdf-syntax-ns#">
   <cc:Work>
    <dc:type rdf:resource="http://purl.org/dc/dcmitype/StillImage"/>
    <dc:date>2025-03-28T15:52:42.547620</dc:date>
    <dc:format>image/svg+xml</dc:format>
    <dc:creator>
     <cc:Agent>
      <dc:title>Matplotlib v3.10.1, https://matplotlib.org/</dc:title>
     </cc:Agent>
    </dc:creator>
   </cc:Work>
  </rdf:RDF>
 </metadata>
 <defs>
  <style type="text/css">*{stroke-linejoin: round; stroke-linecap: butt}</style>
 </defs>
 <g id="figure_1">
  <g id="patch_1">
   <path d="M 0 347.155125 
L 1018.8 347.155125 
L 1018.8 0 
L 0 0 
z
" style="fill: #ffffff"/>
  </g>
  <g id="axes_1">
   <g id="patch_2">
    <path d="M 7.2 307.90575 
L 1011.6 307.90575 
L 1011.6 86.14575 
L 7.2 86.14575 
z
" style="fill: #ffffff"/>
   </g>
   <g id="patch_3">
    <path d="M 52.854545 307.90575 
L 104.538937 307.90575 
L 104.538937 96.70575 
L 52.854545 96.70575 
z
" clip-path="url(#p86ec87220e)" style="fill: #0f766e"/>
   </g>
   <g id="patch_4">
    <path d="M 225.135849 307.90575 
L 276.82024 307.90575 
L 276.82024 96.70575 
L 225.135849 96.70575 
z
" clip-path="url(#p86ec87220e)" style="fill: #0f766e"/>
   </g>
   <g id="patch_5">
    <path d="M 397.417153 307.90575 
L 449.101544 307.90575 
L 449.101544 96.70575 
L 397.417153 96.70575 
z
" clip-path="url(#p86ec87220e)" style="fill: #0f766e"/>
   </g>
   <g id="patch_6">
    <path d="M 569.698456 307.90575 
L 621.382847 307.90575 
L 621.382847 96.70575 
L 569.698456 96.70575 
z
" clip-path="url(#p86ec87220e)" style="fill: #0f766e"/>
   </g>
   <g id="patch_7">
    <path d="M 741.97976 307.90575 
L 793.664151 307.90575 
L 793.664151 96.70575 
L 741.97976 96.70575 
z
" clip-path="url(#p86ec87220e)" style="fill: #0f766e"/>
   </g>
   <g id="patch_8">
    <path d="M 914.261063 307.90575 
L 965.945455 307.90575 
L 965.945455 96.70575 
L 914.261063 96.70575 
z
" clip-path="url(#p86ec87220e)" style="fill: #0f766e"/>
   </g>
   <g id="matplotlib.axis_1">
    <g id="xtick_1">
     <g id="text_1">
      <!-- 2026 -->
      <g style="fill: #6a6a6a" transform="translate(59.214866 337.043563) scale(0.14 -0.14)">
       <defs>
        <path id="DejaVuSans-Bold-32" d="M 1844 884 
L 3897 884 
L 3897 0 
L 506 0 
L 506 884 
L 2209 2388 
Q 2438 2594 2547 2791 
Q 2656 2988 2656 3200 
Q 2656 3528 2436 3728 
Q 2216 3928 1850 3928 
Q 1569 3928 1234 3808 
Q 900 3688 519 3450 
L 519 4475 
Q 925 4609 1322 4679 
Q 1719 4750 2100 4750 
Q 2938 4750 3402 4381 
Q 3866 4013 3866 3353 
Q 3866 2972 3669 2642 
Q 3472 2313 2841 1759 
L 1844 884 
z
" transform="scale(0.015625)"/>
        <path id="DejaVuSans-Bold-30" d="M 2944 2338 
Q 2944 3213 2780 3570 
Q 2616 3928 2228 3928 
Q 1841 3928 1675 3570 
Q 1509 3213 1509 2338 
Q 1509 1453 1675 1090 
Q 1841 728 2228 728 
Q 2613 728 2778 1090 
Q 2944 1453 2944 2338 
z
M 4147 2328 
Q 4147 1169 3647 539 
Q 3147 -91 2228 -91 
Q 1306 -91 806 539 
Q 306 1169 306 2328 
Q 306 3491 806 4120 
Q 1306 4750 2228 4750 
Q 3147 4750 3647 4120 
Q 4147 3491 4147 2328 
z
" transform="scale(0.015625)"/>
        <path id="DejaVuSans-Bold-36" d="M 2316 2303 
Q 2000 2303 1842 2098 
Q 1684 1894 1684 1484 
Q 1684 1075 1842 870 
Q 2000 666 2316 666 
Q 2634 666 2792 870 
Q 2950 1075 2950 1484 
Q 2950 1894 2792 2098 
Q 2634 2303 2316 2303 
z
M 3803 4544 
L 3803 3681 
Q 3506 3822 3243 3889 
Q 2981 3956 2731 3956 
Q 2194 3956 1894 3657 
Q 1594 3359 1544 2772 
Q 1750 2925 1990 3001 
Q 2231 3078 2516 3078 
Q 3231 3078 3670 2659 
Q 4109 2241 4109 1563 
Q 4109 813 3618 361 
Q 3128 -91 2303 -91 
Q 1394 -91 895 523 
Q 397 1138 397 2266 
Q 397 3422 980 4083 
Q 1563 4744 2578 4744 
Q 2900 4744 3203 4694 
Q 3506 4644 3803 4544 
z
" transform="scale(0.015625)"/>
       </defs>
       <use xlink:href="#DejaVuSans-Bold-32"/>
       <use xlink:href="#DejaVuSans-Bold-30" transform="translate(69.580078 0)"/>
       <use xlink:href="#DejaVuSans-Bold-32" transform="translate(139.160156 0)"/>
       <use xlink:href="#DejaVuSans-Bold-36" transform="translate(208.740234 0)"/>
      </g>
     </g>
    </g>
    <g id="xtick_2">
     <g id="text_2">
      <!-- 2027 -->
      <g style="fill: #6a6a6a" transform="translate(231.49617 337.043563) scale(0.14 -0.14)">
       <defs>
        <path id="DejaVuSans-Bold-37" d="M 428 4666 
L 3944 4666 
L 3944 3988 
L 2125 0 
L 953 0 
L 2675 3781 
L 428 3781 
L 428 4666 
z
" transform="scale(0.015625)"/>
       </defs>
       <use xlink:href="#DejaVuSans-Bold-32"/>
       <use xlink:href="#DejaVuSans-Bold-30" transform="translate(69.580078 0)"/>
       <use xlink:href="#DejaVuSans-Bold-32" transform="translate(139.160156 0)"/>
       <use xlink:href="#DejaVuSans-Bold-37" transform="translate(208.740234 0)"/>
      </g>
     </g>
    </g>
    <g id="xtick_3">
     <g id="text_3">
      <!-- 2028 -->
      <g style="fill: #6a6a6a" transform="translate(403.777473 337.043563) scale(0.14 -0.14)">
       <defs>
        <path id="DejaVuSans-Bold-38" d="M 2228 2088 
Q 1891 2088 1709 1903 
Q 1528 1719 1528 1375 
Q 1528 1031 1709 848 
Q 1891 666 2228 666 
Q 2563 666 2741 848 
Q 2919 1031 2919 1375 
Q 2919 1722 2741 1905 
Q 2563 2088 2228 2088 
z
M 1350 2484 
Q 925 2613 709 2878 
Q 494 3144 494 3541 
Q 494 4131 934 4440 
Q 1375 4750 2228 4750 
Q 3075 4750 3515 4442 
Q 3956 4134 3956 3541 
Q 3956 3144 3739 2878 
Q 3522 2613 3097 2484 
Q 3572 2353 3814 2058 
Q 4056 1763 4056 1313 
Q 4056 619 3595 264 
Q 3134 -91 2228 -91 
Q 1319 -91 855 264 
Q 391 619 391 1313 
Q 391 1763 633 2058 
Q 875 2353 1350 2484 
z
M 1631 3419 
Q 1631 3141 1786 2991 
Q 1941 2841 2228 2841 
Q 2509 2841 2662 2991 
Q 2816 3141 2816 3419 
Q 2816 3697 2662 3845 
Q 2509 3994 2228 3994 
Q 1941 3994 1786 3844 
Q 1631 3694 1631 3419 
z
" transform="scale(0.015625)"/>
       </defs>
       <use xlink:href="#DejaVuSans-Bold-32"/>
       <use xlink:href="#DejaVuSans-Bold-30" transform="translate(69.580078 0)"/>
       <use xlink:href="#DejaVuSans-Bold-32" transform="translate(139.160156 0)"/>
       <use xlink:href="#DejaVuSans-Bold-38" transform="translate(208.740234 0)"/>
      </g>
     </g>
    </g>
    <g id="xtick_4">
     <g id="text_4">
      <!-- 2029 -->
      <g style="fill: #6a6a6a" transform="translate(576.058777 337.043563) scale(0.14 -0.14)">
       <defs>
        <path id="DejaVuSans-Bold-39" d="M 641 103 
L 641 966 
Q 928 831 1190 764 
Q 1453 697 1709 697 
Q 2247 697 2547 995 
Q 2847 1294 2900 1881 
Q 2688 1725 2447 1647 
Q 2206 1569 1925 1569 
Q 1209 1569 770 1986 
Q 331 2403 331 3084 
Q 331 3838 820 4291 
Q 1309 4744 2131 4744 
Q 3044 4744 3544 4128 
Q 4044 3513 4044 2388 
Q 4044 1231 3459 570 
Q 2875 -91 1856 -91 
Q 1528 -91 1228 -42 
Q 928 6 641 103 
z
M 2125 2350 
Q 2441 2350 2600 2554 
Q 2759 2759 2759 3169 
Q 2759 3575 2600 3781 
Q 2441 3988 2125 3988 
Q 1809 3988 1650 3781 
Q 1491 3575 1491 3169 
Q 1491 2759 1650 2554 
Q 1809 2350 2125 2350 
z
" transform="scale(0.015625)"/>
       </defs>
       <use xlink:href="#DejaVuSans-Bold-32"/>
       <use xlink:href="#DejaVuSans-Bold-30" transform="translate(69.580078 0)"/>
       <use xlink:href="#DejaVuSans-Bold-32" transform="translate(139.160156 0)"/>
       <use xlink:href="#DejaVuSans-Bold-39" transform="translate(208.740234 0)"/>
      </g>
     </g>
    </g>
    <g id="xtick_5">
     <g id="text_5">
      <!-- 2030 -->
      <g style="fill: #6a6a6a" transform="translate(748.34008 337.043563) scale(0.14 -0.14)">
       <defs>
        <path id="DejaVuSans-Bold-33" d="M 2981 2516 
Q 3453 2394 3698 2092 
Q 3944 1791 3944 1325 
Q 3944 631 3412 270 
Q 2881 -91 1863 -91 
Q 1503 -91 1142 -33 
Q 781 25 428 141 
L 428 1069 
Q 766 900 1098 814 
Q 1431 728 1753 728 
Q 2231 728 2486 893 
Q 2741 1059 2741 1369 
Q 2741 1688 2480 1852 
Q 2219 2016 1709 2016 
L 1228 2016 
L 1228 2791 
L 1734 2791 
Q 2188 2791 2409 2933 
Q 2631 3075 2631 3366 
Q 2631 3634 2415 3781 
Q 2200 3928 1806 3928 
Q 1516 3928 1219 3862 
Q 922 3797 628 3669 
L 628 4550 
Q 984 4650 1334 4700 
Q 1684 4750 2022 4750 
Q 2931 4750 3382 4451 
Q 3834 4153 3834 3553 
Q 3834 3144 3618 2883 
Q 3403 2622 2981 2516 
z
" transform="scale(0.015625)"/>
       </defs>
       <use xlink:href="#DejaVuSans-Bold-32"/>
       <use xlink:href="#DejaVuSans-Bold-30" transform="translate(69.580078 0)"/>
       <use xlink:href="#DejaVuSans-Bold-33" transform="translate(139.160156 0)"/>
       <use xlink:href="#DejaVuSans-Bold-30" transform="translate(208.740234 0)"/>
      </g>
     </g>
    </g>
    <g id="xtick_6">
     <g id="text_6">
      <!-- 2031 -->
      <g style="fill: #6a6a6a" transform="translate(920.621384 337.043563) scale(0.14 -0.14)">
       <defs>
        <path id="DejaVuSans-Bold-31" d="M 750 831 
L 1813 831 
L 1813 3847 
L 722 3622 
L 722 4441 
L 1806 4666 
L 2950 4666 
L 2950 831 
L 4013 831 
L 4013 0 
L 750 0 
L 750 831 
z
" transform="scale(0.015625)"/>
       </defs>
       <use xlink:href="#DejaVuSans-Bold-32"/>
       <use xlink:href="#DejaVuSans-Bold-30" transform="translate(69.580078 0)"/>
       <use xlink:href="#DejaVuSans-Bold-33" transform="translate(139.160156 0)"/>
       <use xlink:href="#DejaVuSans-Bold-31" transform="translate(208.740234 0)"/>
      </g>
     </g>
    </g>
   </g>
   <g id="patch_9">
    <path d="M 7.2 307.90575 
L 1011.6 307.90575 
" style="fill: none; stroke: #d3d3d3; stroke-width: 0.8; stroke-linejoin: miter; stroke-linecap: square"/>
   </g>
   <g id="text_7">
    <!-- R$ 263.38 -->
    <g transform="translate(27.642835 76.924648) scale(0.18 -0.18)">
     <defs>
      <path id="DejaVuSans-Bold-52" d="M 2297 2597 
Q 2675 2597 2839 2737 
Q 3003 2878 3003 3200 
Q 3003 3519 2839 3656 
Q 2675 3794 2297 3794 
L 1791 3794 
L 1791 2597 
L 2297 2597 
z
M 1791 1766 
L 1791 0 
L 588 0 
L 588 4666 
L 2425 4666 
Q 3347 4666 3776 4356 
Q 4206 4047 4206 3378 
Q 4206 2916 3982 2619 
Q 3759 2322 3309 2181 
Q 3556 2125 3751 1926 
Q 3947 1728 4147 1325 
L 4800 0 
L 3519 0 
L 2950 1159 
Q 2778 1509 2601 1637 
Q 2425 1766 2131 1766 
L 1791 1766 
z
" transform="scale(0.015625)"/>
      <path id="DejaVuSans-Bold-24" d="M 2484 -941 
L 1978 -941 
L 1975 0 
Q 1584 16 1218 87 
Q 853 159 506 288 
L 506 1106 
Q 866 922 1233 823 
Q 1600 725 1978 713 
L 1978 1684 
L 1875 1703 
Q 1128 1834 814 2115 
Q 500 2397 500 2925 
Q 500 3484 883 3798 
Q 1266 4113 1975 4141 
L 1978 4863 
L 2484 4863 
L 2484 4153 
Q 2797 4128 3109 4075 
Q 3422 4022 3738 3938 
L 3738 3144 
Q 3425 3275 3112 3348 
Q 2800 3422 2484 3438 
L 2484 2541 
L 2584 2522 
Q 3378 2397 3698 2105 
Q 4019 1813 4019 1241 
Q 4019 666 3637 358 
Q 3256 50 2484 6 
L 2484 -941 
z
M 1978 2613 
L 1978 3428 
Q 1756 3416 1623 3308 
Q 1491 3200 1491 3034 
Q 1491 2850 1612 2745 
Q 1734 2641 1978 2613 
z
M 2484 1594 
L 2484 725 
Q 2756 728 2892 831 
Q 3028 934 3028 1141 
Q 3028 1353 2903 1458 
Q 2778 1563 2484 1594 
z
" transform="scale(0.015625)"/>
      <path id="DejaVuSans-Bold-20" transform="scale(0.015625)"/>
      <path id="DejaVuSans-Bold-2e" d="M 653 1209 
L 1778 1209 
L 1778 0 
L 653 0 
L 653 1209 
z
" transform="scale(0.015625)"/>
     </defs>
     <use xlink:href="#DejaVuSans-Bold-52"/>
     <use xlink:href="#DejaVuSans-Bold-24" transform="translate(77.001953 0)"/>
     <use xlink:href="#DejaVuSans-Bold-20" transform="translate(146.582031 0)"/>
     <use xlink:href="#DejaVuSans-Bold-32" transform="translate(181.396484 0)"/>
     <use xlink:href="#DejaVuSans-Bold-36" transform="translate(250.976562 0)"/>
     <use xlink:href="#DejaVuSans-Bold-33" transform="translate(320.556641 0)"/>
     <use xlink:href="#DejaVuSans-Bold-2e" transform="translate(390.136719 0)"/>
     <use xlink:href="#DejaVuSans-Bold-33" transform="translate(428.125 0)"/>
     <use xlink:href="#DejaVuSans-Bold-38" transform="translate(497.705078 0)"/>
    </g>
   </g>
   <g id="text_8">
    <!-- R$ 263.38 -->
    <g transform="translate(199.924138 76.924648) scale(0.18 -0.18)">
     <use xlink:href="#DejaVuSans-Bold-52"/>
     <use xlink:href="#DejaVuSans-Bold-24" transform="translate(77.001953 0)"/>
     <use xlink:href="#DejaVuSans-Bold-20" transform="translate(146.582031 0)"/>
     <use xlink:href="#DejaVuSans-Bold-32" transform="translate(181.396484 0)"/>
     <use xlink:href="#DejaVuSans-Bold-36" transform="translate(250.976562 0)"/>
     <use xlink:href="#DejaVuSans-Bold-33" transform="translate(320.556641 0)"/>
     <use xlink:href="#DejaVuSans-Bold-2e" transform="translate(390.136719 0)"/>
     <use xlink:href="#DejaVuSans-Bold-33" transform="translate(428.125 0)"/>
     <use xlink:href="#DejaVuSans-Bold-38" transform="translate(497.705078 0)"/>
    </g>
   </g>
   <g id="text_9">
    <!-- R$ 263.38 -->
    <g transform="translate(372.205442 76.924648) scale(0.18 -0.18)">
     <use xlink:href="#DejaVuSans-Bold-52"/>
     <use xlink:href="#DejaVuSans-Bold-24" transform="translate(77.001953 0)"/>
     <use xlink:href="#DejaVuSans-Bold-20" transform="translate(146.582031 0)"/>
     <use xlink:href="#DejaVuSans-Bold-32" transform="translate(181.396484 0)"/>
     <use xlink:href="#DejaVuSans-Bold-36" transform="translate(250.976562 0)"/>
     <use xlink:href="#DejaVuSans-Bold-33" transform="translate(320.556641 0)"/>
     <use xlink:href="#DejaVuSans-Bold-2e" transform="translate(390.136719 0)"/>
     <use xlink:href="#DejaVuSans-Bold-33" transform="translate(428.125 0)"/>
     <use xlink:href="#DejaVuSans-Bold-38" transform="translate(497.705078 0)"/>
    </g>
   </g>
   <g id="text_10">
    <!-- R$ 263.38 -->
    <g transform="translate(544.486746 76.924648) scale(0.18 -0.18)">
     <use xlink:href="#DejaVuSans-Bold-52"/>
     <use xlink:href="#DejaVuSans-Bold-24" transform="translate(77.001953 0)"/>
     <use xlink:href="#DejaVuSans-Bold-20" transform="translate(146.582031 0)"/>
     <use xlink:href="#DejaVuSans-Bold-32" transform="translate(181.396484 0)"/>
     <use xlink:href="#DejaVuSans-Bold-36" transform="translate(250.976562 0)"/>
     <use xlink:href="#DejaVuSans-Bold-33" transform="translate(320.556641 0)"/>
     <use xlink:href="#DejaVuSans-Bold-2e" transform="translate(390.136719 0)"/>
     <use xlink:href="#DejaVuSans-Bold-33" transform="translate(428.125 0)"/>
     <use xlink:href="#DejaVuSans-Bold-38" transform="translate(497.705078 0)"/>
    </g>
   </g>
   <g id="text_11">
    <!-- R$ 263.38 -->
    <g transform="translate(716.768049 76.924648) scale(0.18 -0.18)">
     <use xlink:href="#DejaVuSans-Bold-52"/>
     <use xlink:href="#DejaVuSans-Bold-24" transform="translate(77.001953 0)"/>
     <use xlink:href="#DejaVuSans-Bold-20" transform="translate(146.582031 0)"/>
     <use xlink:href="#DejaVuSans-Bold-32" transform="translate(181.396484 0)"/>
     <use xlink:href="#DejaVuSans-Bold-36" transform="translate(250.976562 0)"/>
     <use xlink:href="#DejaVuSans-Bold-33" transform="translate(320.556641 0)"/>
     <use xlink:href="#DejaVuSans-Bold-2e" transform="translate(390.136719 0)"/>
     <use xlink:href="#DejaVuSans-Bold-33" transform="translate(428.125 0)"/>
     <use xlink:href="#DejaVuSans-Bold-38" transform="translate(497.705078 0)"/>
    </g>
   </g>
   <g id="text_12">
    <!-- R$ 263.38 -->
    <g transform="translate(889.049353 76.924648) scale(0.18 -0.18)">
     <use xlink:href="#DejaVuSans-Bold-52"/>
     <use xlink:href="#DejaVuSans-Bold-24" transform="translate(77.001953 0)"/>
     <use xlink:href="#DejaVuSans-Bold-20" transform="translate(146.582031 0)"/>
     <use xlink:href="#DejaVuSans-Bold-32" transform="translate(181.396484 0)"/>
     <use xlink:href="#DejaVuSans-Bold-36" transform="translate(250.976562 0)"/>
     <use xlink:href="#DejaVuSans-Bold-33" transform="translate(320.556641 0)"/>
     <use xlink:href="#DejaVuSans-Bold-2e" transform="translate(390.136719 0)"/>
     <use xlink:href="#DejaVuSans-Bold-33" transform="translate(428.125 0)"/>
     <use xlink:href="#DejaVuSans-Bold-38" transform="translate(497.705078 0)"/>
    </g>
   </g>
   <g id="text_13">
    <!-- Preço Praticado por Período ¹ -->
    <g style="fill: #0f766e" transform="translate(309.721875 26.39625) scale(0.24 -0.24)">
     <defs>
      <path id="DejaVuSans-Bold-50" d="M 588 4666 
L 2584 4666 
Q 3475 4666 3951 4270 
Q 4428 3875 4428 3144 
Q 4428 2409 3951 2014 
Q 3475 1619 2584 1619 
L 1791 1619 
L 1791 0 
L 588 0 
L 588 4666 
z
M 1791 3794 
L 1791 2491 
L 2456 2491 
Q 2806 2491 2997 2661 
Q 3188 2831 3188 3144 
Q 3188 3456 2997 3625 
Q 2806 3794 2456 3794 
L 1791 3794 
z
" transform="scale(0.015625)"/>
      <path id="DejaVuSans-Bold-72" d="M 3138 2547 
Q 2991 2616 2845 2648 
Q 2700 2681 2553 2681 
Q 2122 2681 1889 2404 
Q 1656 2128 1656 1613 
L 1656 0 
L 538 0 
L 538 3500 
L 1656 3500 
L 1656 2925 
Q 1872 3269 2151 3426 
Q 2431 3584 2822 3584 
Q 2878 3584 2943 3579 
Q 3009 3575 3134 3559 
L 3138 2547 
z
" transform="scale(0.015625)"/>
      <path id="DejaVuSans-Bold-65" d="M 4031 1759 
L 4031 1441 
L 1416 1441 
Q 1456 1047 1700 850 
Q 1944 653 2381 653 
Q 2734 653 3104 758 
Q 3475 863 3866 1075 
L 3866 213 
Q 3469 63 3072 -14 
Q 2675 -91 2278 -91 
Q 1328 -91 801 392 
Q 275 875 275 1747 
Q 275 2603 792 3093 
Q 1309 3584 2216 3584 
Q 3041 3584 3536 3087 
Q 4031 2591 4031 1759 
z
M 2881 2131 
Q 2881 2450 2695 2645 
Q 2509 2841 2209 2841 
Q 1884 2841 1681 2658 
Q 1478 2475 1428 2131 
L 2881 2131 
z
" transform="scale(0.015625)"/>
      <path id="DejaVuSans-Bold-e7" d="M 3366 3391 
L 3366 2478 
Q 3138 2634 2908 2709 
Q 2678 2784 2431 2784 
Q 1963 2784 1702 2511 
Q 1441 2238 1441 1747 
Q 1441 1256 1702 982 
Q 1963 709 2431 709 
Q 2694 709 2930 787 
Q 3166 866 3366 1019 
L 3366 103 
Q 3103 6 2833 -42 
Q 2563 -91 2291 -91 
Q 1344 -91 809 395 
Q 275 881 275 1747 
Q 275 2613 809 3098 
Q 1344 3584 2291 3584 
Q 2566 3584 2833 3536 
Q 3100 3488 3366 3391 
z
M 2457 0 
Q 2639 -194 2724 -359 
Q 2810 -525 2810 -672 
Q 2810 -969 2618 -1111 
Q 2426 -1253 2029 -1253 
Q 1879 -1253 1719 -1233 
Q 1560 -1213 1398 -1172 
L 1395 -697 
Q 1551 -747 1680 -770 
Q 1810 -794 1914 -794 
Q 2095 -794 2196 -722 
Q 2298 -650 2298 -525 
Q 2298 -444 2231 -316 
Q 2164 -188 2023 0 
L 2457 0 
z
" transform="scale(0.015625)"/>
      <path id="DejaVuSans-Bold-6f" d="M 2203 2784 
Q 1831 2784 1636 2517 
Q 1441 2250 1441 1747 
Q 1441 1244 1636 976 
Q 1831 709 2203 709 
Q 2569 709 2762 976 
Q 2956 1244 2956 1747 
Q 2956 2250 2762 2517 
Q 2569 2784 2203 2784 
z
M 2203 3584 
Q 3106 3584 3614 3096 
Q 4122 2609 4122 1747 
Q 4122 884 3614 396 
Q 3106 -91 2203 -91 
Q 1297 -91 786 396 
Q 275 884 275 1747 
Q 275 2609 786 3096 
Q 1297 3584 2203 3584 
z
" transform="scale(0.015625)"/>
      <path id="DejaVuSans-Bold-61" d="M 2106 1575 
Q 1756 1575 1579 1456 
Q 1403 1338 1403 1106 
Q 1403 894 1545 773 
Q 1688 653 1941 653 
Q 2256 653 2472 879 
Q 2688 1106 2688 1447 
L 2688 1575 
L 2106 1575 
z
M 3816 1997 
L 3816 0 
L 2688 0 
L 2688 519 
Q 2463 200 2181 54 
Q 1900 -91 1497 -91 
Q 953 -91 614 226 
Q 275 544 275 1050 
Q 275 1666 698 1953 
Q 1122 2241 2028 2241 
L 2688 2241 
L 2688 2328 
Q 2688 2594 2478 2717 
Q 2269 2841 1825 2841 
Q 1466 2841 1156 2769 
Q 847 2697 581 2553 
L 581 3406 
Q 941 3494 1303 3539 
Q 1666 3584 2028 3584 
Q 2975 3584 3395 3211 
Q 3816 2838 3816 1997 
z
" transform="scale(0.015625)"/>
      <path id="DejaVuSans-Bold-74" d="M 1759 4494 
L 1759 3500 
L 2913 3500 
L 2913 2700 
L 1759 2700 
L 1759 1216 
Q 1759 972 1856 886 
Q 1953 800 2241 800 
L 2816 800 
L 2816 0 
L 1856 0 
Q 1194 0 917 276 
Q 641 553 641 1216 
L 641 2700 
L 84 2700 
L 84 3500 
L 641 3500 
L 641 4494 
L 1759 4494 
z
" transform="scale(0.015625)"/>
      <path id="DejaVuSans-Bold-69" d="M 538 3500 
L 1656 3500 
L 1656 0 
L 538 0 
L 538 3500 
z
M 538 4863 
L 1656 4863 
L 1656 3950 
L 538 3950 
L 538 4863 
z
" transform="scale(0.015625)"/>
      <path id="DejaVuSans-Bold-63" d="M 3366 3391 
L 3366 2478 
Q 3138 2634 2908 2709 
Q 2678 2784 2431 2784 
Q 1963 2784 1702 2511 
Q 1441 2238 1441 1747 
Q 1441 1256 1702 982 
Q 1963 709 2431 709 
Q 2694 709 2930 787 
Q 3166 866 3366 1019 
L 3366 103 
Q 3103 6 2833 -42 
Q 2563 -91 2291 -91 
Q 1344 -91 809 395 
Q 275 881 275 1747 
Q 275 2613 809 3098 
Q 1344 3584 2291 3584 
Q 2566 3584 2833 3536 
Q 3100 3488 3366 3391 
z
" transform="scale(0.015625)"/>
      <path id="DejaVuSans-Bold-64" d="M 2919 2988 
L 2919 4863 
L 4044 4863 
L 4044 0 
L 2919 0 
L 2919 506 
Q 2688 197 2409 53 
Q 2131 -91 1766 -91 
Q 1119 -91 703 423 
Q 288 938 288 1747 
Q 288 2556 703 3070 
Q 1119 3584 1766 3584 
Q 2128 3584 2408 3439 
Q 2688 3294 2919 2988 
z
M 2181 722 
Q 2541 722 2730 984 
Q 2919 1247 2919 1747 
Q 2919 2247 2730 2509 
Q 2541 2772 2181 2772 
Q 1825 2772 1636 2509 
Q 1447 2247 1447 1747 
Q 1447 1247 1636 984 
Q 1825 722 2181 722 
z
" transform="scale(0.015625)"/>
      <path id="DejaVuSans-Bold-70" d="M 1656 506 
L 1656 -1331 
L 538 -1331 
L 538 3500 
L 1656 3500 
L 1656 2988 
Q 1888 3294 2169 3439 
Q 2450 3584 2816 3584 
Q 3463 3584 3878 3070 
Q 4294 2556 4294 1747 
Q 4294 938 3878 423 
Q 3463 -91 2816 -91 
Q 2450 -91 2169 54 
Q 1888 200 1656 506 
z
M 2400 2772 
Q 2041 2772 1848 2508 
Q 1656 2244 1656 1747 
Q 1656 1250 1848 986 
Q 2041 722 2400 722 
Q 2759 722 2948 984 
Q 3138 1247 3138 1747 
Q 3138 2247 2948 2509 
Q 2759 2772 2400 2772 
z
" transform="scale(0.015625)"/>
      <path id="DejaVuSans-Bold-ed" d="M 538 3500 
L 1656 3500 
L 1656 0 
L 538 0 
L 538 3500 
z
M 1590 5119 
L 2474 5119 
L 1321 3944 
L 709 3944 
L 1590 5119 
z
" transform="scale(0.015625)"/>
      <path id="DejaVuSans-Bold-b9" d="M 441 2578 
L 1088 2578 
L 1088 4206 
L 384 4044 
L 384 4544 
L 1100 4697 
L 1806 4697 
L 1806 2578 
L 2444 2578 
L 2444 2088 
L 441 2088 
L 441 2578 
z
" transform="scale(0.015625)"/>
     </defs>
     <use xlink:href="#DejaVuSans-Bold-50"/>
     <use xlink:href="#DejaVuSans-Bold-72" transform="translate(73.291016 0)"/>
     <use xlink:href="#DejaVuSans-Bold-65" transform="translate(122.607422 0)"/>
     <use xlink:href="#DejaVuSans-Bold-e7" transform="translate(190.429688 0)"/>
     <use xlink:href="#DejaVuSans-Bold-6f" transform="translate(249.707031 0)"/>
     <use xlink:href="#DejaVuSans-Bold-20" transform="translate(318.408203 0)"/>
     <use xlink:href="#DejaVuSans-Bold-50" transform="translate(353.222656 0)"/>
     <use xlink:href="#DejaVuSans-Bold-72" transform="translate(426.513672 0)"/>
     <use xlink:href="#DejaVuSans-Bold-61" transform="translate(475.830078 0)"/>
     <use xlink:href="#DejaVuSans-Bold-74" transform="translate(543.310547 0)"/>
     <use xlink:href="#DejaVuSans-Bold-69" transform="translate(591.113281 0)"/>
     <use xlink:href="#DejaVuSans-Bold-63" transform="translate(625.390625 0)"/>
     <use xlink:href="#DejaVuSans-Bold-61" transform="translate(684.667969 0)"/>
     <use xlink:href="#DejaVuSans-Bold-64" transform="translate(752.148438 0)"/>
     <use xlink:href="#DejaVuSans-Bold-6f" transform="translate(823.730469 0)"/>
     <use xlink:href="#DejaVuSans-Bold-20" transform="translate(892.431641 0)"/>
     <use xlink:href="#DejaVuSans-Bold-70" transform="translate(927.246094 0)"/>
     <use xlink:href="#DejaVuSans-Bold-6f" transform="translate(998.828125 0)"/>
     <use xlink:href="#DejaVuSans-Bold-72" transform="translate(1067.529297 0)"/>
     <use xlink:href="#DejaVuSans-Bold-20" transform="translate(1116.845703 0)"/>
     <use xlink:href="#DejaVuSans-Bold-50" transform="translate(1151.660156 0)"/>
     <use xlink:href="#DejaVuSans-Bold-65" transform="translate(1224.951172 0)"/>
     <use xlink:href="#DejaVuSans-Bold-72" transform="translate(1292.773438 0)"/>
     <use xlink:href="#DejaVuSans-Bold-ed" transform="translate(1342.089844 0)"/>
     <use xlink:href="#DejaVuSans-Bold-6f" transform="translate(1376.367188 0)"/>
     <use xlink:href="#DejaVuSans-Bold-64" transform="translate(1445.068359 0)"/>
     <use xlink:href="#DejaVuSans-Bold-6f" transform="translate(1516.650391 0)"/>
     <use xlink:href="#DejaVuSans-Bold-20" transform="translate(1585.351562 0)"/>
     <use xlink:href="#DejaVuSans-Bold-b9" transform="translate(1620.166016 0)"/>
    </g>
    <!--  -->
    <g style="fill: #0f766e" transform="translate(509.4 53.271) scale(0.24 -0.24)"/>
    <!--  -->
    <g style="fill: #0f766e" transform="translate(509.4 80.14575) scale(0.24 -0.24)"/>
   </g>
  </g>
 </g>
 <defs>
  <clipPath id="p86ec87220e">
   <rect x="7.2" y="86.14575" width="1004.4" height="221.76"/>
  </clipPath>
 </defs>
</svg>
